<svg xmlns="http://www.w3.org/2000/svg" xmlns:xlink="http://www.w3.org/1999/xlink" aria-hidden="true" focusable="false" role="img" class="iconify iconify--ph" width="1em" height="1em" preserveAspectRatio="xMidYMid meet" viewBox="0 0 256 256" style="transform: rotate(360deg);"><path d="M128.001 64a64 64 0 1 0 64 64a64.073 64.073 0 0 0-64-64zm0 112a48 48 0 1 1 48-48a48.054 48.054 0 0 1-48 48zm96-42.421v-11.156l8.963-13.444a16.076 16.076 0 0 0 2.069-13.634a111.467 111.467 0 0 0-8.245-19.942a16.055 16.055 0 0 0-11.097-8.168l-15.863-3.173l-7.888-7.888l-3.173-15.864a16.055 16.055 0 0 0-8.168-11.097a111.513 111.513 0 0 0-19.943-8.244a16.072 16.072 0 0 0-13.633 2.069L133.579 32h-11.156l-13.443-8.962a16.075 16.075 0 0 0-13.634-2.069a111.51 111.51 0 0 0-19.942 8.244a16.05 16.05 0 0 0-8.17 11.098l-3.171 15.862l-7.889 7.889l-15.862 3.172a16.054 16.054 0 0 0-11.098 8.168a111.498 111.498 0 0 0-8.245 19.943a16.078 16.078 0 0 0 2.068 13.633L32 122.422v11.156l-8.963 13.444a16.075 16.075 0 0 0-2.068 13.633a111.465 111.465 0 0 0 8.244 19.943a16.052 16.052 0 0 0 11.098 8.168l15.863 3.173l7.888 7.888l3.172 15.863a16.055 16.055 0 0 0 8.168 11.098a111.53 111.53 0 0 0 19.942 8.244a16.08 16.08 0 0 0 13.633-2.068l13.445-8.963h11.156l13.445 8.964a16.238 16.238 0 0 0 9.011 2.756a15.886 15.886 0 0 0 4.622-.688a111.414 111.414 0 0 0 19.942-8.244a16.051 16.051 0 0 0 8.168-11.098l3.173-15.863l7.888-7.889l15.863-3.172a16.054 16.054 0 0 0 11.098-8.168a111.506 111.506 0 0 0 8.245-19.942a16.075 16.075 0 0 0-2.069-13.633zm-11.288 39.43a.38.38 0 0 1-.16.069l-18.239 3.647a8.002 8.002 0 0 0-4.088 2.188l-11.314 11.314a7.998 7.998 0 0 0-2.187 4.088l-3.648 18.239c-.016.08-.05.136-.016.121a95.825 95.825 0 0 1-16.996 7.037a.362.362 0 0 1-.167-.06l-15.46-10.307A7.996 7.996 0 0 0 136 208h-16a8 8 0 0 0-4.438 1.343l-15.46 10.307c-.068.046-.143.06-.102.074a96.019 96.019 0 0 1-17.007-7.011a.378.378 0 0 1-.07-.161l-3.647-18.239a7.995 7.995 0 0 0-2.188-4.088l-11.313-11.313a8.002 8.002 0 0 0-4.088-2.188l-18.238-3.648c-.056-.012-.1-.03-.116-.03c-.008 0-.01.003-.006.014a95.852 95.852 0 0 1-7.037-16.998a.366.366 0 0 1 .06-.166l10.306-15.46A8 8 0 0 0 48 136v-16a8 8 0 0 0-1.344-4.438L36.35 100.103c-.045-.069-.06-.143-.073-.103a96.03 96.03 0 0 1 7.012-17.008a.373.373 0 0 1 .16-.069l18.238-3.647a7.995 7.995 0 0 0 4.088-2.188l11.314-11.314a7.995 7.995 0 0 0 2.188-4.088l3.647-18.238c.016-.08.05-.132.016-.12a95.8 95.8 0 0 1 16.998-7.038a.704.704 0 0 1 .166.06l15.46 10.306A7.996 7.996 0 0 0 120 48h16a7.996 7.996 0 0 0 4.438-1.344l15.46-10.306c.068-.046.142-.06.102-.073a96.023 96.023 0 0 1 17.008 7.011a.374.374 0 0 1 .07.16l3.647 18.239a7.999 7.999 0 0 0 2.188 4.088l11.313 11.313a8.003 8.003 0 0 0 4.087 2.188l18.238 3.648c.081.015.136.05.122.016a95.809 95.809 0 0 1 7.038 16.996a.369.369 0 0 1-.06.167l-10.307 15.46a8 8 0 0 0-1.344 4.438v16a8 8 0 0 0 1.344 4.437l10.307 15.461c.045.069.06.142.073.102a96.04 96.04 0 0 1-7.012 17.008z" fill="currentColor"></path></svg>